<svg width="40" height="40" viewBox="0 0 40 40" fill="none" xmlns="http://www.w3.org/2000/svg">
<path d="M20 36.6667C10.7952 36.6667 3.33331 29.2048 3.33331 20C3.33331 10.7953 10.7952 3.33337 20 3.33337C29.2047 3.33337 36.6666 10.7953 36.6666 20C36.6565 29.2006 29.2005 36.6566 20 36.6667ZM20 6.66671C12.6756 6.66856 6.72408 12.5781 6.67038 19.9023C6.61668 27.2264 12.481 33.2226 19.8045 33.3319C27.128 33.4411 33.1685 27.6225 33.3333 20.3V23.2717V20C33.325 12.6397 27.3604 6.67497 20 6.66671ZM22.4166 28.1667L14.1666 19.9167L22.4166 11.6667L24.7733 14.0234L18.88 19.9167L24.7716 25.81L22.4183 28.1667H22.4166Z" fill="white"/>
</svg>
