<svg width="50" height="51" viewBox="0 0 50 51" fill="none" xmlns="http://www.w3.org/2000/svg">
<path d="M40.8854 46.7088L36.6312 42.9144L34.2333 40.6588L31.6979 38.2767L32.7396 41.9847H10.3062C8.05961 41.9766 6.24423 40.1284 6.24998 37.8551V10.7816C6.24654 8.50992 8.06124 6.66426 10.3062 6.65613H36.8292C39.0742 6.66426 40.8889 8.50992 40.8854 10.7816V46.7088ZM31.4583 28.8074C30.5799 29.9995 29.3152 30.8412 27.8854 31.1852C28.4729 31.9441 29.1812 32.8021 29.1875 32.8105C31.5773 32.8617 33.8401 31.7243 35.2437 29.7665C35.1719 25.708 34.1978 21.7179 32.3937 18.0922C30.8055 16.8311 28.8722 16.0951 26.8562 15.9842H26.8333L26.5562 16.3046C28.3569 16.794 30.0361 17.6601 31.4854 18.8469C29.6413 17.8211 27.6176 17.1682 25.5271 16.9244C24.1984 16.7751 22.8568 16.7885 21.5312 16.9644C21.4375 16.9663 21.3441 16.9762 21.2521 16.9939H21.1937C19.6403 17.1749 18.1246 17.6017 16.7021 18.2588C15.9896 18.5897 15.5521 18.83 15.5333 18.8385C15.5146 18.8469 15.5333 18.8385 15.5333 18.8237C17.0706 17.6003 18.8441 16.7163 20.7396 16.2287L20.5312 15.9884H20.5187C18.5029 16.0996 16.5696 16.8356 14.9812 18.0964C13.1706 21.7196 12.1962 25.7113 12.1312 29.7708C13.5174 31.7415 15.7833 32.8832 18.1729 32.8148C18.1729 32.8148 18.9187 31.8957 19.5 31.1515C18.1062 30.7971 16.8782 29.9622 16.0271 28.7905C16.0417 28.8011 16.2479 28.9423 16.5812 29.1278C16.6036 29.1544 16.6313 29.176 16.6625 29.191C16.6889 29.2095 16.7168 29.2257 16.7458 29.2395C16.7788 29.2547 16.8102 29.273 16.8396 29.2943C17.3044 29.5536 17.7869 29.779 18.2833 29.9689C19.2272 30.3471 20.2036 30.6364 21.2 30.8332C22.0724 30.9996 22.9581 31.0843 23.8458 31.0862C24.6782 31.0861 25.5088 31.0085 26.3271 30.8543C27.3126 30.6792 28.2751 30.3906 29.1958 29.9942C29.9911 29.6847 30.75 29.2866 31.4583 28.8074ZM27.2125 27.9072C26.3061 27.9872 25.4441 27.496 25.0419 26.6702C24.6397 25.8445 24.7796 24.8535 25.3944 24.1749C26.0092 23.4962 26.9726 23.269 27.8206 23.6027C28.6686 23.9364 29.2271 24.7626 29.2271 25.6833C29.273 26.8594 28.3724 27.8526 27.2104 27.9072H27.2125ZM19.9875 27.9072C18.8476 27.8067 17.9728 26.8411 17.9728 25.6833C17.9728 24.5255 18.8476 23.5598 19.9875 23.4593C20.5126 23.4609 21.0146 23.6776 21.3792 24.0601C21.7928 24.4945 22.0178 25.0781 22.0042 25.6812C22.0524 26.8593 21.1496 27.8548 19.9854 27.9072H19.9875Z" fill="#24272A"/>
</svg>
