<svg width="41" height="40" viewBox="0 0 41 40" fill="none" xmlns="http://www.w3.org/2000/svg">
<path d="M20.834 36.6666C11.6334 36.6565 4.1774 29.2005 4.1673 19.9999V19.6666C4.35052 10.5075 11.8916 3.21321 21.0518 3.33475C30.2119 3.45629 37.5568 10.9481 37.4969 20.1088C37.4371 29.2696 29.9949 36.6648 20.834 36.6666ZM20.834 6.66661C13.4702 6.66661 7.50063 12.6362 7.50063 19.9999C7.50063 27.3637 13.4702 33.3333 20.834 33.3333C28.1978 33.3333 34.1673 27.3637 34.1673 19.9999C34.159 12.6396 28.1943 6.67488 20.834 6.66661ZM18.4173 28.3333L16.0606 25.9749L21.9523 20.0833L16.0606 14.1916L18.4173 11.8333L26.6673 20.0833L18.419 28.3333H18.4173Z" fill="white"/>
</svg>
