<svg width="31" height="30" viewBox="0 0 31 30" fill="none" xmlns="http://www.w3.org/2000/svg">
<path d="M23.7863 24.5087L16.6113 17.3637C13.4196 19.6231 9.02141 19.0704 6.49348 16.0924C3.96554 13.1144 4.15116 8.70448 6.92049 5.94749C9.68909 3.1893 14.1187 3.00369 17.1102 5.52051C20.1018 8.03734 20.6572 12.4168 18.3878 15.595L25.5627 22.74L23.7875 24.5075L23.7863 24.5087ZM12.2461 6.24998C9.86541 6.24944 7.81148 7.91334 7.32785 10.2343C6.84423 12.5552 8.06385 14.8953 10.2483 15.8378C12.4327 16.7802 14.9816 16.066 16.3518 14.1276C17.7219 12.1891 17.5367 9.55914 15.9083 7.82999L16.6678 8.57999L15.8116 7.72999L15.7966 7.71499C14.8572 6.77396 13.5787 6.2464 12.2461 6.24998Z" fill="#363636"/>
</svg>
