<svg width="50" height="51" viewBox="0 0 50 51" fill="none" xmlns="http://www.w3.org/2000/svg">
<path d="M4.17083 25.6326C4.17326 36.0029 11.6258 44.8327 21.7479 46.4579V31.7249H16.4625V25.6326H21.7542V20.995C21.5176 18.7974 22.2594 16.6073 23.7784 15.0185C25.2974 13.4298 27.4362 12.6071 29.6146 12.7736C31.1782 12.7992 32.7379 12.9401 34.2812 13.1952V18.3789H31.6479C30.7413 18.2587 29.8299 18.5617 29.1704 19.2024C28.5108 19.8432 28.1745 20.7523 28.2562 21.6738V25.6326H34.0292L33.1062 31.727H28.2562V46.4579C39.2031 44.7074 46.8794 34.5913 45.724 23.4383C44.5686 12.2853 34.986 3.99982 23.9184 4.58428C12.8508 5.16873 4.17259 14.4185 4.17083 25.6326Z" fill="#24272A"/>
</svg>
