<svg width="31" height="30" viewBox="0 0 31 30" fill="none" xmlns="http://www.w3.org/2000/svg">
<path d="M23.7864 24.5088L16.6115 17.3638C13.4197 19.6231 9.02154 19.0705 6.4936 16.0925C3.96566 13.1144 4.15128 8.70454 6.92061 5.94756C9.68922 3.18936 14.1188 3.00375 17.1104 5.52057C20.1019 8.0374 20.6573 12.4169 18.3879 15.5951L25.5629 22.7401L23.7876 24.5076L23.7864 24.5088ZM12.2463 6.25004C9.86554 6.24951 7.8116 7.9134 7.32798 10.2343C6.84435 12.5553 8.06397 14.8954 10.2484 15.8379C12.4329 16.7803 14.9818 16.0661 16.3519 14.1276C17.722 12.1891 17.5368 9.5592 15.9084 7.83006L16.668 8.58006L15.8117 7.73006L15.7967 7.71506C14.8573 6.77402 13.5788 6.24646 12.2463 6.25004Z" fill="white"/>
</svg>
