<svg width="50" height="51" viewBox="0 0 50 51" fill="none" xmlns="http://www.w3.org/2000/svg">
<path d="M41.6563 14.4306C43.5238 13.3008 44.9212 11.522 45.5875 9.42609C43.8326 10.4797 41.9126 11.2219 39.9104 11.6206C37.1345 8.64933 32.7365 7.92627 29.1737 9.8554C25.611 11.7845 23.7656 15.8883 24.6687 19.8735C17.4804 19.5083 10.7833 16.0725 6.24375 10.4211C3.87467 14.5558 5.08532 19.8414 9.01042 22.5001C7.59106 22.454 6.20318 22.0651 4.9625 21.366C4.9625 21.404 4.9625 21.4419 4.9625 21.4798C4.96332 25.7869 7.96328 29.4969 12.1354 30.3505C10.8189 30.7129 9.43793 30.7662 8.09792 30.5065C9.27125 34.1898 12.6261 36.7131 16.45 36.7884C13.283 39.3036 9.37183 40.6675 5.34584 40.6609C4.63223 40.6619 3.91919 40.6204 3.21042 40.5365C7.29873 43.1948 12.057 44.6058 16.9167 44.6008C23.6776 44.6478 30.1751 41.9508 34.9557 37.1131C39.7363 32.2754 42.4012 25.7007 42.3542 18.8596C42.3542 18.4675 42.3451 18.0775 42.3271 17.6896C44.078 16.4092 45.5892 14.823 46.7896 13.0055C45.1584 13.7372 43.4281 14.2175 41.6563 14.4306Z" fill="#24272A"/>
</svg>
